<svg xmlns="http://www.w3.org/2000/svg" width="19" height="14" viewBox="0 0 19 14" class="style_icon__DODoP"><path fill="#191B1E" fill-rule="evenodd" d="M16.875 9.918H5.625v-3.5H15.75c.621 0 1.125.523 1.125 1.164zm-15.75 0H4.5v-3.5H1.125zM2.25 4.082H4.5c.621 0 1.125.523 1.125 1.168h-4.5c0-.645.504-1.168 1.125-1.168zm13.5 1.168h-9c0-1.285-1.008-2.332-2.25-2.332H2.25c-.41 0-.793.113-1.125.312V.582A.575.575 0 00.562 0 .572.572 0 000 .582v12.836c0 .32.25.582.563.582a.575.575 0 00.562-.582v-2.336h15.75v2.336c0 .32.25.582.563.582a.575.575 0 00.562-.582V7.582c0-1.285-1.008-2.332-2.25-2.332zm0 0"></path></svg>