<svg xmlns="http://www.w3.org/2000/svg" width="16" height="16" class="style_icon__DODoP"><g transform="matrix(0.8000001 0 0 0.8000001 0 0)"><path transform="matrix(1 0 0 1 0 0)" d="M18.5976 8.921177L16.3296 8.921177L16.3296 2.625663C 16.3296 -0.1435266 12.5922 -1.018785 11.35682 1.451822L11.35682 1.451822L10.36139 3.442597C 10.1747 3.816023 10.32601 4.270114 10.69948 4.456846C 11.07298 4.64354 11.52703 4.492189 11.71377 4.118763L11.71377 4.118763L12.70919 2.127989C 13.23314 1.080059 14.8176 1.449781 14.8176 2.625663L14.8176 2.625663L14.8176 8.921177L0.7559999 8.921177C 0.3384612 8.921177 6.377121E-13 9.259639 6.377121E-13 9.677139L6.377121E-13 9.677139L6.377121E-13 12.66606C 6.377121E-13 15.15198 1.748212 17.23699 4.079754 17.75712L4.079754 17.75712L3.834658 18.27312C 3.655524 18.65025 3.816023 19.10117 4.193154 19.2803C 4.568735 19.45876 5.020558 19.30041 5.200372 18.92181L5.200372 18.92181L5.694229 17.8822L13.65941 17.8822L14.15326 18.92181C 14.33259 19.29939 14.78373 19.45925 15.16048 19.2803C 15.53765 19.10117 15.69815 18.65022 15.51898 18.27312L15.51898 18.27312L15.27388 17.75712C 17.60539 17.23695 19.3536 15.15198 19.3536 12.66606L19.3536 12.66606L19.3536 9.677139C 19.3536 9.259639 19.01514 8.921177 18.5976 8.921177zM17.8416 12.66606C 17.8416 14.70858 16.1798 16.37027 14.1372 16.37027L14.1372 16.37027L5.2164 16.37027C 3.173801 16.37027 1.512 14.70858 1.512 12.66606L1.512 12.66606L1.512 10.43314L17.8416 10.43314L17.8416 12.66606z" stroke="none" fill="#191B1E"></path></g></svg>