<svg xmlns="http://www.w3.org/2000/svg" width="16" height="16" class="style_icon__DODoP"><g transform="matrix(0.7619048 0 0 0.7619048 0 0)"><path transform="matrix(1 0 0 1 0 0)" d="M20.05313 -1.776357E-15L6.46875 -1.776357E-15C 6.111351 -1.776357E-15 5.821875 0.2898 5.821875 0.646875L5.821875 0.646875L5.821875 1.617188C 5.821875 1.974262 6.111351 2.264062 6.46875 2.264062C 6.825825 2.264062 7.115625 1.974262 7.115625 1.617188L7.115625 1.617188L7.115625 1.29375L14.55469 1.29375L14.55469 3.234375C 14.55469 3.59145 14.84416 3.88125 15.20156 3.88125C 15.55864 3.88125 15.84844 3.59145 15.84844 3.234375L15.84844 3.234375L15.84844 1.29375L19.40625 1.29375L19.40625 14.55469L15.84844 14.55469L15.84844 7.7625C 15.84844 7.405425 15.55864 7.115625 15.20156 7.115625C 14.84416 7.115625 14.55469 7.405425 14.55469 7.7625L14.55469 7.7625L14.55469 9.703125L13.26094 9.703125C 12.90354 9.703125 12.61406 9.992925 12.61406 10.35C 12.61406 10.70708 12.90354 10.99687 13.26094 10.99687L13.26094 10.99687L14.55469 10.99687L14.55469 19.40625L8.732812 19.40625L8.732812 10.99687L9.379687 10.99687C 9.736762 10.99687 10.02656 10.70708 10.02656 10.35C 10.02656 9.992925 9.736762 9.703125 9.379687 9.703125L9.379687 9.703125L6.792187 9.703125C 6.434789 9.703125 6.145312 9.992925 6.145312 10.35C 6.145312 10.70708 6.434789 10.99687 6.792187 10.99687L6.792187 10.99687L7.439062 10.99687L7.439062 19.40625L1.29375 19.40625L1.29375 10.99687L2.5875 10.99687C 2.944575 10.99687 3.234375 10.70708 3.234375 10.35C 3.234375 9.992925 2.944575 9.703125 2.5875 9.703125L2.5875 9.703125L1.29375 9.703125L1.29375 7.7625L6.46875 7.7625C 6.825825 7.7625 7.115625 7.4727 7.115625 7.115625L7.115625 7.115625L7.115625 6.145312C 7.115625 5.788238 6.825825 5.498437 6.46875 5.498437C 6.111351 5.498437 5.821875 5.788238 5.821875 6.145312L5.821875 6.145312L5.821875 6.46875L0.646875 6.46875C 0.2894765 6.46875 -1.776357E-15 6.75855 -1.776357E-15 7.115625L-1.776357E-15 7.115625L-1.776357E-15 20.05313C -1.776357E-15 20.4102 0.2894765 20.7 0.646875 20.7L0.646875 20.7L15.20156 20.7C 15.55864 20.7 15.84844 20.4102 15.84844 20.05313L15.84844 20.05313L15.84844 15.84844L20.05313 15.84844C 20.4102 15.84844 20.7 15.55864 20.7 15.20156L20.7 15.20156L20.7 0.646875C 20.7 0.2898 20.4102 -1.776357E-15 20.05313 -1.776357E-15" stroke="none" fill="#191B1E"></path></g></svg>